<?xml version="1.0" encoding="utf-8"?>
<!-- Generator: Adobe Illustrator 15.1.0, SVG Export Plug-In . SVG Version: 6.00 Build 0)  -->
<!DOCTYPE svg PUBLIC "-//W3C//DTD SVG 1.1//EN" "http://www.w3.org/Graphics/SVG/1.1/DTD/svg11.dtd">
<svg version="1.1" id="Layer_1" xmlns="http://www.w3.org/2000/svg" xmlns:xlink="http://www.w3.org/1999/xlink" x="0px" y="0px"
	 width="400px" height="400px" viewBox="0 0 400 400" enable-background="new 0 0 400 400" xml:space="preserve">
<g>
	<g>
		<path class="logo-fill" d="M379.812,114.103c5.808-1.905,11.231-5.047,11.231-10.286c0-2.762-1.233-3.905-3.999-3.905
			c-3.236,0-6.572,2.474-8.57,4.473c-3.236,3.236-6.576,7.146-9.236,12.098C371.336,116.388,375.814,115.338,379.812,114.103
			 M385.527,131.816c-4.004,5.239-10.287,10.098-18.194,10.098c-6.004,0-9.524-4.29-9.524-9.811
			c0-17.052,18.857-35.052,31.43-35.052c4.285,0,7.428,1.622,7.428,6.19c0,6.67-5.903,10.291-16.284,13.435
			c-3.052,0.855-9.425,2.281-12.574,2.954c-1.425,2.281-3.334,6.853-3.334,10.469c0,4.86,2.479,7.716,6.862,7.716
			c5.142,0,9.996-3.999,12.755-7.141C384.957,129.816,386.19,130.959,385.527,131.816 M390.481,14.859
			c0.468,0,1.043-0.288,0.854-0.951l-1.811-12.765C389.337,0.286,388.956,0,388.476,0c-0.287,0-0.667,0.193-0.95,0.768
			c-0.573,1.138-1.436,2.093-3.049,2.093c-2.855,0-5.527-2.093-12.284-2.093c-8.861,0-20.575,3.804-20.575,16.664
			c0,12.855,10.286,17.051,19.144,20.288c9.332,3.429,16.765,5.997,16.765,15.715c0,10.854-7.616,14.378-14.858,14.378
			c-8,0-17.427-3.811-20.763-16.477C351.617,50.292,351.367,50,350.61,50c-0.672,0-1.11,0.481-1.11,1.623v16.285
			c0,0.956,0.438,1.431,1.01,1.431c0.381,0,0.792-0.282,1.074-0.763c0.668-0.95,1.396-1.811,3.213-1.811
			c3.613,0,7.888,4.385,18.268,4.385c9.139,0,24.563-2.861,24.563-20.858c0-7.145-2.954-16.289-20.297-21.147
			c-12.279-3.43-16.188-8.57-16.188-14.86c0-5.427,3.242-10.663,12.092-10.663c4.385,0,11.522,1.237,16.288,10.569
			C389.811,14.759,390.094,14.859,390.481,14.859 M337.808,11.717c-2.475,0-5.34-1.524-5.34-5.529c0-4.285,3.435-5.616,6.003-5.616
			c3.623,0,6.575,2.573,6.575,7.047c0,4.954-3.717,10.86-10.287,10.86c-0.668,0-0.955-0.479-0.955-0.856
			c0-0.48,0.287-0.768,0.671-0.861c4.475-0.856,6.194-3.716,6.289-5.621C340.376,11.435,339.045,11.717,337.808,11.717
			 M349.238,102.766c0,2.766-1.049,6.477-3.429,10.474c-4.479,7.241-8.002,8.669-11.048,8.669c-2.574,0-3.718-2.093-3.718-5.142
			c0-2.667,1.144-6.097,3.146-9.242c3.05-4.854,7.335-8.854,11.144-8.854C347.907,98.674,349.238,99.911,349.238,102.766
			 M328.383,159.342c-10.573,0-13.716-6.096-13.716-9.143c0-2.856,1.144-4.667,4.001-6.671c2.001-1.424,4.951-2.854,7.237-3.711
			c2.573,1.144,6.479,3.43,7.716,4.573c5.713,4,6.855,6.285,6.855,8.288C340.476,158.104,332.382,159.342,328.383,159.342
			 M361.618,101.054c1.143,0,2.192-0.57,2.192-2.574c0-1.713-1.618-2.288-3.143-2.288c-1.716,0-3.904,0.475-6.195,2
			c-0.568,0.48-1.999,1.143-2.855,0.569c-1.81-1.236-3.431-2.094-7.715-2.094c-4.288,0-10.568,2.574-14.571,8.002
			c-2.855,3.998-3.43,6.857-3.43,9.717c0,2.855,1.147,4.953,1.998,6.092c0.189,0.287,0.282,0.475,0.282,0.767
			c0,0.663-0.851,1.138-2.28,1.524c-2.568,0.856-6.859,3.33-6.859,7.714c0,2.855,2.281,5.616,4.858,7.329
			c0,0-5.237,1.43-9.429,3.715c-3.242,1.811-6.86,4.571-6.86,8.57c0,4.573,3.911,12.003,20.001,12.003
			c9.43,0,15.334-3.424,17.626-6.002c1.707-2,1.994-4.281,1.994-5.71c0-5.147-5.712-10.004-11.993-13.429
			c-4.005-2.292-9.906-5.054-9.906-9.149c0-1.045,0.283-2.188,1.426-2.855c0.767-0.573,2-0.855,3.336-0.855
			c1.812,0,4.096,0.574,5.714,0.574c5.144,0,12.099-1.717,16.381-10.861c1.141-2.573,1.622-5.146,1.622-7.333
			c0-2.859-0.481-3.527-0.481-4.854c0-1.143,1.146-1.811,3.337-1.811C359.809,99.817,359.809,101.054,361.618,101.054
			 M302.76,114.103c5.906-1.905,11.333-5.047,11.333-10.286c0-2.762-1.331-3.905-4-3.905c-3.335,0-6.571,2.474-8.572,4.473
			c-3.331,3.236-6.573,7.146-9.331,12.098C294.378,116.388,298.759,115.338,302.76,114.103 M308.476,131.816
			c-4.004,5.239-10.286,10.098-18.096,10.098c-6.006,0-9.617-4.29-9.617-9.811c0-17.052,18.856-35.052,31.425-35.052
			c4.285,0,7.431,1.622,7.431,6.19c0,6.67-5.81,10.291-16.288,13.435c-2.955,0.855-9.432,2.281-12.574,2.954
			c-1.424,2.281-3.236,6.853-3.236,10.469c0,4.86,2.382,7.716,6.858,7.716c5.144,0,10-3.999,12.667-7.141
			C307.901,129.816,309.233,130.959,308.476,131.816 M280.663,84.196c0,0.282-0.095,0.856-0.376,1.426
			c-7.725,16.763-15.339,33.433-22.767,50.193c-0.381,0.861-1.142,2.573-1.142,3.716c0,1.43,1.043,2.666,2.572,2.666
			c0.757,0,1.806-0.282,2.382-0.569c4.191-1.717,8.57-6.288,11.141-10.193c0.574-0.856-0.475-1.618-1.143-1.044
			c-1.047,0.952-4.002,4.95-7.145,6.666c-0.569,0.283-1.142,0.283-0.763-0.856l23.813-52.86c0.376-0.955,0.57-1.525,0.57-2.098
			c0-0.665-0.479-0.956-1.145-0.956c-1.141,0-2.478,0.291-4.194,0.48c-1.425,0.094-3.9,0.286-6.088,0.475
			c-0.574,0-0.861,0.573-0.861,0.954c0,0.57,0.475,0.853,1.044,0.853c1.148,0,2.286,0,3.53,0.292
			C280.568,83.528,280.663,83.814,280.663,84.196 M322.474,47.5c0-5,4.285-6.31,8.004-6.598c1.426-0.188,1.707-2.402-0.291-2.402
			h-28.863c-1.994,0-2.053,2.61-0.059,2.799c5.722,0.38,10.235,1.466,10.235,6.989v10.381c0,2.286-1.087,3.903-2.329,4.858
			c-5.047,4.192-11.398,4.478-15.11,4.478c-18.285,0-26.457-15.808-26.457-31.523c0-12.766,6.477-32.861,27.623-32.861
			c18.955,0,25.61,12.287,27.902,16.953c0.761,1.431,2.371,1.144,2.371,0V5.433c0-1.431-1.9-1.718-2.367,0
			c-0.389,1.711-1.427,2.854-2.855,2.854c-1.144,0-2.429-0.856-2.994-1.242c-5.718-3.613-11.128-6.473-21.979-6.473
			c-17.526,0-39.137,8.76-39.137,35.435c0,26.851,20.309,35.141,38.024,35.141c17.434,0,26.308-8.857,28.308-10V47.5H322.474z
			 M259.421,84.196c0,0.282-0.094,0.856-0.376,1.426c-7.716,16.763-15.334,33.433-22.764,50.193
			c-0.386,0.861-1.146,2.573-1.146,3.716c0,1.43,1.048,2.666,2.573,2.666c0.761,0,1.812-0.282,2.38-0.569
			c4.19-1.717,8.574-6.288,11.143-10.193c0.573-0.856-0.476-1.618-1.143-1.044c-1.044,0.952-3.999,4.95-7.143,6.666
			c-0.574,0.283-1.148,0.283-0.764-0.856l23.811-52.86c0.382-0.955,0.575-1.525,0.575-2.098c0-0.665-0.48-0.956-1.149-0.956
			c-1.144,0-2.475,0.291-4.186,0.48c-1.431,0.094-3.905,0.286-6.101,0.475c-0.57,0-0.856,0.573-0.856,0.954
			c0,0.57,0.479,0.853,1.048,0.853c1.144,0,2.286,0,3.523,0.292C259.327,83.528,259.421,83.814,259.421,84.196 M225.518,98.481
			c-9.035,0-21.985,21.431-21.985,34.479c0,3.429,1.524,6.001,5.148,6.001c8.852,0,22.078-21.905,22.078-33.429
			C230.756,102.102,229.806,98.481,225.518,98.481 M223.612,95.813c9.143,0,10.861,8.002,10.861,15.428
			c0,11.811-10.861,30.673-23.985,30.673c-8.287,0-11.43-6.669-11.43-13.528C199.059,111.91,210.771,95.813,223.612,95.813
			 M177.723,0.5c-2,0-2,2.183-0.856,2.469c2.191,0.475,6.764,0.946,6.764,6.944c0.094,14.19,0.094,32.809-0.475,47.957
			c-0.1,5.427-1.722,9.979-6.384,10.552c-1.713,0.095-1.713,2.079-0.574,2.079h20.569c1.147,0,1.524-1.769,0.099-2.057
			c-3.138-0.573-8.288-0.555-8.668-10.548c-0.475-9.719-0.758-46.65-0.758-46.65L239.047,68.5h4.284c0,0,0-53.536,0.289-57.632
			c0.28-4.759,1.905-7.42,7.042-7.801c2.578-0.189,2.098-2.567,0.385-2.567h-20.955c-2.476,0-1.906,2.469-0.762,2.469
			c2.287,0.287,9.43,1.227,9.717,8.087c0.282,10.004,0.757,41.014,0.757,41.014L193.916,0.5H177.723z M196.202,101.529
			c0.564,0,0.945-0.287,1.138-0.856l4.578-14.572c0.283-0.855-0.098-1.43-0.861-1.43c-0.287,0-0.663,0.092-0.954,0.381
			c-0.857,0.855-1.902,1.717-2.762,1.717c-0.475,0-0.856-0.288-1.331-0.668c-4.093-5.048-10.663-5.814-13.811-5.814
			c-14.571,0-27.144,9.53-34.572,21.243c-4.478,6.952-6.764,14.571-6.764,22.098c0,11.999,8.286,18.762,19.144,18.762
			c4.859,0,8.57-0.573,15.142-3.334c1.435-0.575,3.053-1.242,4.002-1.242c1.619,0,1.717,2.384,1.906,4.576
			c0,0.857,0.568,1.138,1.143,1.138c0.381,0,0.856-0.188,1.144-0.851l6.096-17.432c0.475-1.43-0.095-1.999-0.669-1.999
			c-0.855,0-1.331,0.381-1.999,1.519c-2.767,4.285-4.672,7.051-14.286,11.722c-4.001,1.9-8.668,3.043-12.383,3.043
			c-8.096,0-11.238-6.191-11.238-13.999c0-10.287,4.861-21.049,12.287-30c4.765-5.907,12.003-12.573,20.474-12.573
			c8.101,0,14.103,5.999,13.241,17.146C194.773,101.054,195.437,101.529,196.202,101.529 M159.5,59.5V11.143
			c0-5.997,4.205-7.888,8.777-8.175c1.716,0,1.924-2.468-0.362-2.468h-28.574c-2,0-2.273,2.37-0.278,2.468
			c4.29,0.475,9.438,2.746,9.438,8.175v48.48c0,5.429-2,8.856-8,8.856c-3,0-2,2.021,0,2.021h27.698c1.431,0,1.89-2.057-0.49-2.057
			c-6.001,0-8.208-3.888-8.208-8.742 M91.721,11.336c0-2.191-0.856-4.291-3.712-5.334c-2.386-0.855-4.578-1.144-6.958-1.524
			c-3.428-0.57-2.761-3.905,0.287-3.905c2,0,11.523,0.762,22.855,0.762c6.576,0,16.002-0.287,20.574-0.568
			c2.856-0.194,3.144,2.854,1.144,3.424c-1.999,0.573-11.43,2.855-28.289,18.288C80.196,38.48,57.723,62.196,57.723,62.196
			s50.47,60.189,59.33,67.334c9.144,7.432,15.433,7.985,22.288,8.559c1.716,0.094,2.286,3.41,0,3.41H99.913
			c0,0-48.861-59.031-56.862-64.464c-1.424-0.855-4.859-1.992-5.142,2.006c-0.287,3.716-0.573,35.056,0.283,41.909
			c0.86,6.858,3.717,16.86,20.005,16.86c2,0,3.142,3.815,0.288,3.717c-9.625-0.475-16.858-0.475-28.768-0.475
			c-10.287,0-24.666,0.476-26.665,0.476c-3.425,0-3.425-3.141-0.288-3.424c4.572-0.291,15.434-0.86,16.096-18.288
			c0.763-18.002,0.288-93.815,0-102.099C18.767,12.002,13.907,4.106,1.339,4.106c-2.004,0-1.712-3.606,0.569-3.606H55.62
			c2.005,0,3.148,3.513-0.283,3.8C51.909,4.586,38.86,5.058,38.479,22.484c-0.474,17.433-0.474,44.522-0.474,45.665
			c0,1.431,0.569,2.882,2.573,1.452c6.191-4.191,24.569-22.182,38.289-37.609c5.423-6.095,9.145-11.424,11.713-16.377
			C91.146,14.565,91.721,13.048,91.721,11.336"/>
		<path class="logo-fill" d="M333.901,165.5c-1.139,0-1.431,1.719,0.099,1.719c1.714,0,5.337,0.333,5.337,5.568l-0.287,42.219
			c0,4.572-1.625,8.486-5.911,8.486c-1.425,0-1.425,2.008-0.281,2.008h17.622c1.136,0,1.136-2.044-0.195-2.044
			c-2.573,0-7.051-1.218-7.145-8.452l-0.382-42.948c0,0,45.146,53.444,45.433,53.444h3.049l0.464-51.005
			c0-5.046,1.797-7.848,7.797-7.848c1,0,1-1.147,0-1.147h-20c-1,0-1,1.147,0,1.147c2,0,8.062,0.382,8.153,6.953l0.461,37.332
			L349.332,165.5H333.901L333.901,165.5z M279.429,194.645c0-15.429,7.146-27.33,20.286-27.33c11.713,0,20.569,11.333,20.569,27.33
			c0,19.717-8,28.381-20.569,28.381C287.425,223.025,279.429,211.219,279.429,194.645 M299.715,225.796
			c17.62,0,30.282-12.291,30.282-31.151c0-16.572-12.286-30-30.282-30c-17.532,0-30.099,13.715-30.099,30
			C269.616,212.358,281.52,225.796,299.715,225.796 M215.5,173.024c0-5.429,3.011-5.711,10.435-5.711
			c12.854,0,25.744,6.449,25.744,26.83c0,19.812-10.918,28.356-25.302,28.356h-3.049c-3.802,0-7.828-0.905-7.828-8.427V173.024z
			 M200.391,164.644c-1.999,0-1.372,2.29-0.229,2.29c2.28,0,6.339,1.143,6.339,5.711v42.958c0,4.566-1.291,7.562-6.72,7.562
			c-1.336,0-1.582,2.334-0.34,2.334h28.656c12.567,0,33.425-6.143,33.425-30.998c0-25.142-17.146-29.787-33.716-29.787
			L200.391,164.644L200.391,164.644z M129.437,165.5c-1.143,0-1.432,1.719,0.095,1.719c1.717,0,5.333,0.333,5.333,5.568
			l-0.287,42.219c0,4.572-1.618,8.486-5.904,8.486c-1.431,0-1.431,2.008-0.288,2.008h17.622c1.143,0,1.143-2.044-0.192-2.044
			c-2.57,0-7.043-1.218-7.143-8.452l-0.38-42.948c0,0,45.146,53.444,45.428,53.444h3.054l0.193-51.005
			c0-5.046,2.532-7.848,7.532-7.848c1,0,1-1.147,0-1.147h-20c-1,0-1,1.147,0,1.147c2,0,8.326,0.382,8.421,6.953l0.595,37.332
			l-38.65-45.432H129.437L129.437,165.5z M74.576,194.645c0-15.429,7.146-27.33,20.287-27.33c11.717,0,20.571,11.333,20.571,27.33
			c0,19.717-7.997,28.381-20.571,28.381C82.579,223.025,74.576,211.219,74.576,194.645 M94.863,225.796
			c17.622,0,30.287-12.291,30.287-31.151c0-16.572-12.285-30-30.287-30c-17.525,0-30.099,13.715-30.099,30
			C64.765,212.358,76.674,225.796,94.863,225.796 M390.5,258.5H7.5v8h383V258.5L390.5,258.5z M390.5,246.5H7.5v4h383V246.5
			L390.5,246.5z M6.5,165.5h24.361c1.236,0,1.509,1.767-0.011,1.767c-2.384,0-7.351,0.905-7.351,6.042v42.671
			c0,4.858,2.488,6.571,13.063,6.571c10.191,0,19.866-1.237,24.625-14.758c0.38-1.143,2.218-0.959,1.931,0.761L60.005,225.5H7.146
			c-1.811,0-1.419-2.28-0.276-2.28c3.429,0,7.63-1.719,7.63-7.903v-40.859c0-5.237-3-7.428-8-7.428C4.5,167.029,4.5,165.5,6.5,165.5
			"/>
	</g>
	<g>
		<path class="logo-fill" d="M18.93,375.662l-4.43-12.155V375.5h-7v-29h7v10.498l4.094-10.498h6.701l-5.733,12.835l6.624,16.165h-7.437L18.93,375.662z
			"/>
		<path class="logo-fill" d="M27.5,351.5v-5h6v5H27.5z M27.5,375.5v-22h6v22H27.5z"/>
		<path class="logo-fill" d="M46.5,375.825v-15.728c0-1.007-0.489-1.628-1.535-1.628c-1.434,0-2.465,1.822-2.465,4.687V375.5h-6v-22h6v3.691
			c1-2.519,2.501-4.028,5.098-4.028c2.517,0,4.902,1.627,4.902,5.229V375.5h-6.051L46.5,375.825z"/>
		<path class="logo-fill" d="M62.256,383.108c-4.261,0-8.251-1.163-8.251-4.804c0-1.395,0.697-2.131,2.053-2.79l1.008-0.502l-0.736-0.426
			c-1.511-0.892-1.976-2.053-1.976-3.681c0-2.014,1.356-3.292,2.673-4.184l0.698-0.464l-0.659-0.582
			c-1.202-1.045-2.17-3.175-2.17-5.112c0-4.805,2.557-7.669,7.476-7.669c1.511,0,2.286,0.219,3.1,0.568l0.581-3.964h4.959
			l-3.409,5.046c1.472,1.242,2.711,3.108,2.711,6.052c0,4.221-2.635,6.954-6.934,6.954c-0.929,0-2.169-0.045-2.905-0.238
			c-0.62,0.387-1.317,0.615-1.317,1.429c0,1.085,1.007,1.083,1.899,1.083l3.679-0.04c4.223-0.039,6.741,2.092,6.741,6.43
			C71.475,380.938,68.801,383.108,62.256,383.108z M62.527,375.5h-2.712c-0.542,1-1.084,1.208-1.084,1.983
			c0,1.355,1.548,2.192,3.603,2.192c3.215,0,3.68-0.751,3.68-2.262C66.014,376.212,65.084,375.5,62.527,375.5z M62.488,356.186
			c-1.355,0-2.015,0.582-2.015,3.873s0.659,3.875,2.015,3.875c1.356,0,2.054-0.584,2.054-3.875S63.844,356.186,62.488,356.186z"/>
		<path class="logo-fill" d="M74.813,358.626c-0.735,0.309-1.456,0.465-2.347,0.581l-0.495-2.13c0.852-0.272,1.572-0.702,2.154-1.206
			c1.045-0.89,1.108-1.371,0.992-3.371H72.5v-6h6v6.084C78.5,355.411,77.487,357.502,74.813,358.626z"/>
		<path class="logo-fill" d="M88.019,376.213c-5.461,0-7.748-1.975-7.748-5.618c0-0.969,0.194-1.936,0.465-2.749l4.687,0.309
			c-0.116,0.544-0.155,0.969-0.155,1.435c0,1.626,0.697,2.557,2.324,2.557c1.859,0,2.247-1.474,2.247-2.325
			c0-1.162-0.62-1.82-2.285-2.595l-2.402-1.124c-1.937-0.892-4.804-2.557-4.804-6.663c0-4.221,3.603-6.546,7.825-6.546
			c4.067,0,7.244,1.705,7.244,5.5c0,0.814-0.116,1.396-0.349,2.016l-4.609-0.076c0.155-0.466,0.194-0.814,0.194-1.549
			c0-1.24-0.813-1.899-2.092-1.899c-1.318,0-1.938,0.814-1.938,1.976c0,1.279,0.93,1.859,2.44,2.519l2.983,1.278
			c2.519,1.084,4.456,2.594,4.456,6.469C96.502,373.812,94.293,376.213,88.019,376.213z"/>
		<path class="logo-fill" d="M117.616,375.5H108.5v-29h9.581c5.462,0,8.096,6.096,8.096,15.895C126.177,370.221,124.202,375.5,117.616,375.5z
			 M116.376,351.5H114.5v19h1.954c2.13,0,3.138-1.076,3.138-8.629C119.592,353.891,119.166,351.5,116.376,351.5z"/>
		<path class="logo-fill" d="M128.5,351.5v-5h6v5H128.5z M128.5,375.5v-22h6v22H128.5z"/>
		<path class="logo-fill" d="M144.425,383.108c-4.261,0-8.251-1.163-8.251-4.804c0-1.395,0.698-2.131,2.054-2.79l1.007-0.502l-0.736-0.426
			c-1.511-0.892-1.976-2.053-1.976-3.681c0-2.014,1.356-3.292,2.674-4.184l0.697-0.464l-0.659-0.582
			c-1.201-1.045-2.169-3.175-2.169-5.112c0-4.805,2.557-7.669,7.476-7.669c1.511,0,2.286,0.219,3.099,0.568l0.582-3.964h4.959
			l-3.41,5.046c1.472,1.242,2.711,3.108,2.711,6.052c0,4.221-2.635,6.954-6.934,6.954c-0.929,0-2.168-0.045-2.905-0.238
			c-0.62,0.387-1.317,0.615-1.317,1.429c0,1.085,1.008,1.083,1.898,1.083l3.679-0.04c4.223-0.039,6.741,2.092,6.741,6.43
			C153.645,380.938,150.973,383.108,144.425,383.108z M144.696,375.5h-2.712c-0.542,1-1.084,1.208-1.084,1.983
			c0,1.355,1.549,2.192,3.603,2.192c3.216,0,3.68-0.751,3.68-2.262C148.183,376.212,147.253,375.5,144.696,375.5z M144.658,356.186
			c-1.355,0-2.015,0.582-2.015,3.873s0.659,3.875,2.015,3.875c1.356,0,2.053-0.584,2.053-3.875S146.014,356.186,144.658,356.186z"/>
		<path class="logo-fill" d="M155.5,351.5v-5h6v5H155.5z M155.5,375.5v-22h6v22H155.5z"/>
		<path class="logo-fill" d="M170.825,376.136c-3.177,0-5.162-1.301-5.122-4.785l0.185-13.851H162.5v-4h3.465l0.155-6h5.379v6h5v4h-5v11.506
			c0,1.744,1.551,1.938,2.752,1.938c0.968,0,2.248-0.194,2.248-0.466v4.379C176.5,375.398,173.188,376.136,170.825,376.136z"/>
		<path class="logo-fill" d="M193.239,376.29c-3.1,0-3.565-1.2-3.991-2.867l-0.388,0.696c-0.503,1.008-2.034,2.17-4.512,2.17
			c-4.299,0-5.86-3.371-5.86-6.701c0-3.721,1.7-5.888,5.536-6.703l2.322-0.503c2.363-0.504,2.827-1.085,2.827-2.944
			c0-2.091-0.853-2.867-2.441-2.867c-1.472,0-2.634,0.931-2.634,2.286c0,0.774,0.116,1.279,0.309,1.899l-5.112,0.115
			c-0.194-0.89-0.31-1.316-0.31-2.401c0-3.99,3.668-5.578,7.967-5.578c6.198,0,8.549,2.053,8.549,4.997v12.938
			c0,0.812,0.671,1.278,1.446,1.278c0.193,0-0.446-0.039,0.554-0.117v3.138C196.5,375.554,194.788,376.29,193.239,376.29z
			 M189.5,364.786c0,0.31-1.443,0.581-2.023,0.734c-2.209,0.62-2.794,1.396-2.794,3.371c0,1.937,0.588,3.061,2.061,3.061
			c1.433,0,2.757-0.543,2.757-4.919V364.786L189.5,364.786z"/>
		<path class="logo-fill" d="M199.5,375.5v-29h6v29H199.5z"/>
		<path class="logo-fill" d="M218.5,375.5v-29h6v24h8v5H218.5z"/>
		<path class="logo-fill" d="M247.609,376.29c-3.098,0-3.379-1.2-3.806-2.867l-0.296,0.696c-0.502,1.008-1.987,2.17-4.466,2.17
			c-4.3,0-5.836-3.371-5.836-6.701c0-3.721,1.712-5.888,5.547-6.703l2.327-0.503c2.361-0.504,2.828-1.085,2.828-2.944
			c0-2.091-0.852-2.867-2.438-2.867c-1.474,0-2.635,0.931-2.635,2.286c0,0.774,0.115,1.279,0.31,1.899l-5.113,0.115
			c-0.195-0.89-0.311-1.316-0.311-2.401c0-3.99,3.299-5.578,7.599-5.578c6.197,0,8.181,2.053,8.181,4.997v12.938
			c0,0.812,0.67,1.278,1.445,1.278c0.193,0,0.555-0.039,0.555-0.117v3.138C251.5,375.554,249.158,376.29,247.609,376.29z
			 M243.5,364.786c0,0.31-1.072,0.581-1.654,0.734c-2.209,0.62-2.607,1.396-2.607,3.371c0,1.937,0.311,3.061,1.781,3.061
			c1.434,0,2.48-0.543,2.48-4.919V364.786z"/>
		<path class="logo-fill" d="M262.895,376.213c-2.982,0-4.184-2.216-4.998-3.728l-1.316,3.015h-3.08v-29h6v9.298c1-1.24,1.833-2.634,4.272-2.634
			c3.563,0,6.493,2.634,6.493,11.117C270.268,372.92,268.317,376.213,262.895,376.213z M263.825,359.788
			c-0.311-1.278-0.736-1.628-1.629-1.628c-1.549,0-2.284,1.861-2.284,6.624c0,5.269,0.774,6.702,2.091,6.702
			c1.433,0,2.207-1.085,2.207-6.702C264.213,362.462,264.095,360.989,263.825,359.788z"/>
		<path class="logo-fill" d="M280.327,376.174c-6.198,0-8.405-3.293-8.405-11.118c0-8.329,2.711-12.163,8.096-12.163c6.431,0,8.289,3.99,8.289,11.66
			C288.308,372.106,286.797,376.174,280.327,376.174z M280.096,357.502c-1.627,0-1.86,1.435-1.86,7.399
			c0,5.693,0.543,6.276,1.86,6.276c1.396,0,1.898-0.621,1.898-6.276C281.994,358.897,281.685,357.502,280.096,357.502z"/>
		<path class="logo-fill" d="M305.394,363.507l-5.229,0.969c0.115-0.774,0.192-1.705,0.192-2.867c0-2.054-0.668-2.751-1.715-2.751
			c-1.627,0-2.142,2.751-2.142,5.812V375.5h-6v-22h6.061c0,0,0.078,2.718,0.078,4.073l0.271-0.753
			c0.658-1.898,2.091-3.668,4.184-3.668c3.139,0,4.61,1.827,4.61,5.74C305.703,360.906,305.549,362.462,305.394,363.507z"/>
		<path class="logo-fill" d="M321.259,376.29c-3.1,0-3.555-1.2-3.981-2.867l-0.382,0.696c-0.504,1.008-2.032,2.17-4.511,2.17
			c-4.301,0-5.858-3.371-5.858-6.701c0-3.721,1.699-5.888,5.534-6.703l2.322-0.503c2.362-0.504,2.826-1.085,2.826-2.944
			c0-2.091-0.852-2.867-2.441-2.867c-1.471,0-2.635,0.931-2.635,2.286c0,0.774,0.117,1.279,0.311,1.899l-5.114,0.115
			c-0.193-0.89-0.308-1.316-0.308-2.401c0-3.99,3.647-5.578,7.949-5.578c6.196,0,8.529,2.053,8.529,4.997v12.938
			c0,0.812,0.671,1.278,1.446,1.278c0.194,0,0.554-0.039,0.554-0.117v3.138C324.5,375.554,322.809,376.29,321.259,376.29z
			 M317.5,364.786c0,0.31-1.423,0.581-2.005,0.734c-2.208,0.62-2.786,1.396-2.786,3.371c0,1.937,0.574,3.061,2.048,3.061
			c1.434,0,2.743-0.543,2.743-4.919V364.786L317.5,364.786z"/>
		<path class="logo-fill" d="M333.838,376.136c-3.176,0-5.158-1.301-5.118-4.785l0.189-13.851H325.5v-4h3.485l0.154-6h5.36v6h5v4h-5v11.506
			c0,1.744,1.551,1.938,2.753,1.938c0.968,0,2.247-0.194,2.247-0.466v4.379C339.5,375.398,336.201,376.136,333.838,376.136z"/>
		<path class="logo-fill" d="M349.908,376.174c-6.198,0-8.406-3.293-8.406-11.118c0-8.329,2.711-12.163,8.095-12.163c6.431,0,8.289,3.99,8.289,11.66
			C357.886,372.106,356.375,376.174,349.908,376.174z M349.674,357.502c-1.628,0-1.86,1.435-1.86,7.399
			c0,5.693,0.543,6.276,1.86,6.276c1.396,0,1.899-0.621,1.899-6.276C351.573,358.897,351.264,357.502,349.674,357.502z"/>
		<path class="logo-fill" d="M374.972,363.507l-5.229,0.969c0.118-0.774,0.194-1.705,0.194-2.867c0-2.054-0.46-2.751-1.505-2.751
			c-1.629,0-1.932,2.751-1.932,5.812V375.5h-6v-22h5.641c0,0,0.076,2.718,0.076,4.073l0.271-0.753
			c0.659-1.898,2.093-3.668,4.185-3.668c3.138,0,4.609,1.827,4.609,5.74C375.281,360.906,375.127,362.462,374.972,363.507z"/>
		<path class="logo-fill" d="M388.338,375.974c-0.971,3.642-1.823,6.802-6.897,6.802c-4.3,0-5.385-1.899-5.385-4.727c0-0.542,0.079-0.549,0.155-1.549
			h3.836c-0.077,1-0.156,1.019-0.156,1.521c0,0.777,0.427,1.284,1.512,1.284c1.354,0,1.779-1.158,1.779-2.901
			c0-0.62-0.231-1.516-0.504-2.329L375.9,353.5h6.817l3.1,13.055l2.52-13.055h5.849L388.338,375.974z"/>
	</g>
</g>
</svg>
